<?xml version="1.0" encoding="UTF-8"?>
<svg version="1.1" xmlns="http://www.w3.org/2000/svg" width="228" height="86">
<path d="M0 0 C75.24 0 150.48 0 228 0 C228 28.38 228 56.76 228 86 C152.76 86 77.52 86 0 86 C0 57.62 0 29.24 0 0 Z " fill="#FDFEFE" transform="translate(0,0)"/>
<path d="M0 0 C2.33020906 2.15544339 4.46664933 4.42562235 6.625 6.75 C8.09616618 8.25659086 8.09616618 8.25659086 11 9 C11.309375 8.1646875 11.309375 8.1646875 11.625 7.3125 C13.59223543 4.00396768 15.89062714 2.2844372 19 0 C22 0 22 0 24.38671875 2.1953125 C25.24910156 3.12085938 26.11148438 4.04640625 27 5 C32.20336449 10.27975973 37.4073312 15.4513803 43.046875 20.265625 C45.94764719 22.8415107 48.63712803 25.6136102 51.3359375 28.3984375 C52.92422733 30.08628724 52.92422733 30.08628724 55 31 C55 31.66 55 32.32 55 33 C51.35971774 33.34342285 49.54243748 33.36972941 46.47265625 31.27734375 C45.67730469 30.50519531 44.88195312 29.73304687 44.0625 28.9375 C43.20011719 28.11378906 42.33773437 27.29007813 41.44921875 26.44140625 C40.64097656 25.63574219 39.83273438 24.83007812 39 24 C38.36707031 23.36964844 37.73414063 22.73929688 37.08203125 22.08984375 C35.95958387 20.96225931 34.84096866 19.83084484 33.7265625 18.6953125 C31.18716919 16.20188106 28.49969611 13.89173987 25.796875 11.578125 C24.12659942 10.11118731 22.55211328 8.59043707 21 7 C18.11562221 8.29299694 16.12780579 9.65941363 14 12 C15.11440652 15.34321955 15.97472343 16.06019619 18.625 18.25 C22.08779842 21.17910547 25.28828715 24.25483834 28.45703125 27.49609375 C30.0743655 29.13907712 30.0743655 29.13907712 32.4375 30.8125 C32.953125 31.204375 33.46875 31.59625 34 32 C34 32.66 34 33.32 34 34 C30.01851653 34.47848689 28.42189008 34.308658 25.1328125 31.90234375 C24.11590602 30.92878525 23.11408063 29.93931558 22.125 28.9375 C20.99893889 27.84740727 19.87262404 26.75757661 18.74609375 25.66796875 C18.14909668 25.08063965 17.55209961 24.49331055 16.93701172 23.88818359 C13.40966407 20.4497532 9.78993228 17.10935047 6.1875 13.75 C4.80539994 12.45375341 3.42383905 11.15693155 2.04296875 9.859375 C1.45539795 9.30733398 0.86782715 8.75529297 0.26245117 8.18652344 C-0.15415771 7.7949707 -0.5707666 7.40341797 -1 7 C-4.40212299 8.61382757 -7.10324519 10.58603766 -10 13 C-10.66 12.34 -11.32 11.68 -12 11 C-11.80732516 8.25721703 -11.11040481 7.12179185 -9.2578125 5.078125 C-8.55398437 4.47484375 -7.85015625 3.8715625 -7.125 3.25 C-6.42632812 2.63640625 -5.72765625 2.0228125 -5.0078125 1.390625 C-3 0 -3 0 0 0 Z " fill="#414242" transform="translate(163,25)"/>
<path d="M0 0 C2.31958032 1.09484191 3.64846013 2.35541196 5.390625 4.234375 C8.08537344 7.05689168 10.83488454 9.55957162 13.953125 11.921875 C15.933125 9.941875 17.913125 7.961875 19.953125 5.921875 C20.613125 6.251875 21.273125 6.581875 21.953125 6.921875 C21.52 7.33179688 21.086875 7.74171875 20.640625 8.1640625 C20.08375 8.70289063 19.526875 9.24171875 18.953125 9.796875 C18.39625 10.33054687 17.839375 10.86421875 17.265625 11.4140625 C15.73426978 12.84012488 15.73426978 12.84012488 15.953125 14.921875 C17.5039157 16.49051582 17.5039157 16.49051582 19.515625 18.109375 C22.99723988 21.06104496 26.22122604 24.1560653 29.41015625 27.41796875 C31.0274905 29.06095212 31.0274905 29.06095212 33.390625 30.734375 C33.90625 31.12625 34.421875 31.518125 34.953125 31.921875 C34.953125 32.581875 34.953125 33.241875 34.953125 33.921875 C31.765625 34.234375 31.765625 34.234375 27.953125 33.921875 C25.546875 31.73828125 25.546875 31.73828125 22.953125 28.921875 C17.32092034 23.21390077 11.71482275 17.57136939 5.61328125 12.359375 C3.6276692 10.64006857 1.77170101 8.81622501 -0.046875 6.921875 C-3.97901801 8.51126926 -6.37707846 11.08530002 -9.296875 14.109375 C-13.1227284 18.02711014 -17.02325792 21.75944352 -21.21484375 25.28515625 C-23.16695035 27.02914914 -24.85897495 28.9149173 -26.609375 30.859375 C-29.34708305 33.68539622 -29.80103906 33.8945599 -33.984375 34.359375 C-34.995 34.215 -36.005625 34.070625 -37.046875 33.921875 C-37.046875 33.261875 -37.046875 32.601875 -37.046875 31.921875 C-35.59130859 30.47216797 -35.59130859 30.47216797 -33.5703125 28.7890625 C-29.1306699 25.01351074 -24.89798982 21.05827475 -20.671875 17.046875 C-19.18140524 15.64408948 -17.69052165 14.24174352 -16.19921875 12.83984375 C-13.73875762 10.52421393 -11.29168904 8.19683377 -8.86328125 5.84765625 C-7.99574219 5.02652344 -7.12820312 4.20539062 -6.234375 3.359375 C-5.50605469 2.65683594 -4.77773437 1.95429688 -4.02734375 1.23046875 C-2.046875 -0.078125 -2.046875 -0.078125 0 0 Z " fill="#88CFE3" transform="translate(140.046875,25.078125)"/>
<path d="M0 0 C2.38671875 2.1953125 2.38671875 2.1953125 5 5 C10.20336449 10.27975973 15.4073312 15.4513803 21.046875 20.265625 C23.94764719 22.8415107 26.63712803 25.6136102 29.3359375 28.3984375 C30.92422733 30.08628724 30.92422733 30.08628724 33 31 C33 31.66 33 32.32 33 33 C29.35971774 33.34342285 27.54243748 33.36972941 24.47265625 31.27734375 C23.67730469 30.50519531 22.88195312 29.73304687 22.0625 28.9375 C21.20011719 28.11378906 20.33773437 27.29007813 19.44921875 26.44140625 C18.64097656 25.63574219 17.83273438 24.83007812 17 24 C16.05060547 23.05447266 16.05060547 23.05447266 15.08203125 22.08984375 C13.95958387 20.96225931 12.84096866 19.83084484 11.7265625 18.6953125 C9.18716919 16.20188106 6.49969611 13.89173987 3.796875 11.578125 C2.12659942 10.11118731 0.55211328 8.59043707 -1 7 C-4.43595166 8.52708963 -7.11912454 10.59927045 -10 13 C-10.99 11.68 -11.98 10.36 -13 9 C-12.34 9 -11.68 9 -11 9 C-10.79375 8.443125 -10.5875 7.88625 -10.375 7.3125 C-8.0152396 3.34381206 -4.80798205 0 0 0 Z " fill="#707070" transform="translate(185,25)"/>
<path d="M0 0 C1.39456867 0.00574201 2.78910972 0.01875397 4.18359375 0.03515625 C6.63796875 0.05578125 9.09234375 0.07640625 11.62109375 0.09765625 C11.62109375 5.37765625 11.62109375 10.65765625 11.62109375 16.09765625 C6.34109375 16.09765625 1.06109375 16.09765625 -4.37890625 16.09765625 C-4.39953125 13.64328125 -4.42015625 11.18890625 -4.44140625 8.66015625 C-4.45051025 7.88615479 -4.45961426 7.11215332 -4.46899414 6.31469727 C-4.47615538 4.57543908 -4.42915327 2.83620321 -4.37890625 1.09765625 C-3.37890625 0.09765625 -3.37890625 0.09765625 0 0 Z " fill="#C0D5C6" transform="translate(135.37890625,42.90234375)"/>
<path d="M0 0 C1.1859375 0.00257812 2.371875 0.00515625 3.59375 0.0078125 C4.7796875 0.00523438 5.965625 0.00265625 7.1875 0 C10.09375 0.1328125 10.09375 0.1328125 11.09375 1.1328125 C11.32567865 2.64750698 11.50590238 4.17035812 11.65625 5.6953125 C11.74003906 6.52160156 11.82382812 7.34789062 11.91015625 8.19921875 C11.97074219 8.83730469 12.03132813 9.47539063 12.09375 10.1328125 C9.61451199 10.15966345 7.1355616 10.17957797 4.65625 10.1953125 C3.94919922 10.20369141 3.24214844 10.21207031 2.51367188 10.22070312 C0.70681441 10.22934838 -1.10012603 10.18501261 -2.90625 10.1328125 C-3.90625 9.1328125 -3.90625 9.1328125 -4.0390625 7.3203125 C-4.03648438 6.5984375 -4.03390625 5.8765625 -4.03125 5.1328125 C-4.03382812 4.4109375 -4.03640625 3.6890625 -4.0390625 2.9453125 C-3.81304861 -0.13911236 -3.13146765 0.1431047 0 0 Z " fill="#EEF6F9" transform="translate(26.90625,38.8671875)"/>
<path d="M0 0 C1.32 0.33 2.64 0.66 4 1 C3.67 4.63 3.34 8.26 3 12 C3.99 12 4.98 12 6 12 C6 11.34 6 10.68 6 10 C6.99 10 7.98 10 9 10 C8.979375 9.195625 8.95875 8.39125 8.9375 7.5625 C9 5 9 5 10 4 C13 3.875 13 3.875 16 4 C17 5 17 5 17.1328125 6.8125 C17.13023438 7.534375 17.12765625 8.25625 17.125 9 C17.12886719 10.0828125 17.12886719 10.0828125 17.1328125 11.1875 C17 13 17 13 16 14 C13.30345146 14.07319621 10.63308542 14.09242537 7.9375 14.0625 C6.79958008 14.05573242 6.79958008 14.05573242 5.63867188 14.04882812 C3.75908129 14.0370068 1.87953101 14.01907078 0 14 C0 9.38 0 4.76 0 0 Z " fill="#63AFCE" transform="translate(5,35)"/>
<path d="M0 0 C1.32 0.33 2.64 0.66 4 1 C5.25 4.0625 5.25 4.0625 6 7 C6.66 7 7.32 7 8 7 C8.66 5.02 9.32 3.04 10 1 C11.32 1.33 12.64 1.66 14 2 C14 6.29 14 10.58 14 15 C12.68 15 11.36 15 10 15 C10 12.36 10 9.72 10 7 C9.34 8.32 8.68 9.64 8 11 C7.34 11 6.68 11 6 11 C5.34 9.68 4.68 8.36 4 7 C4 9.64 4 12.28 4 15 C2.68 15 1.36 15 0 15 C0 10.05 0 5.1 0 0 Z " fill="#5AA9CB" transform="translate(41,34)"/>
<path d="M0 0 C3 0.125 3 0.125 4 1.125 C4.1328125 2.9375 4.1328125 2.9375 4.125 5.125 C4.12757812 5.846875 4.13015625 6.56875 4.1328125 7.3125 C4 9.125 4 9.125 3 10.125 C0 10.25 0 10.25 -3 10.125 C-4 9.125 -4 9.125 -4.1328125 7.3125 C-4.13023438 6.590625 -4.12765625 5.86875 -4.125 5.125 C-4.12757812 4.403125 -4.13015625 3.68125 -4.1328125 2.9375 C-3.90343964 -0.1927649 -3.18691942 0.13278831 0 0 Z " fill="#6CB3D1" transform="translate(84,38.875)"/>
<path d="M0 0 C1.99954746 -0.04254356 4.00041636 -0.04080783 6 0 C7.58272601 1.58272601 7.34735747 3.38034003 7.5625 5.5625 C7.64628906 6.38878906 7.73007812 7.21507812 7.81640625 8.06640625 C7.87699219 8.70449219 7.93757813 9.34257813 8 10 C5.36 10 2.72 10 0 10 C0.3125 7.625 0.3125 7.625 1 5 C1.99 4.34 2.98 3.68 4 3 C2.68 3 1.36 3 0 3 C0 2.01 0 1.02 0 0 Z " fill="#66B0CF" transform="translate(31,39)"/>
<path d="M0 0 C1.32 0.33 2.64 0.66 4 1 C3.67 4.63 3.34 8.26 3 12 C3.99 12 4.98 12 6 12 C6 11.34 6 10.68 6 10 C6.99 10 7.98 10 9 10 C9 8.35 9 6.7 9 5 C9.33 5 9.66 5 10 5 C10 7.97 10 10.94 10 14 C6.7 14 3.4 14 0 14 C0 9.38 0 4.76 0 0 Z " fill="#6FB5D2" transform="translate(5,35)"/>
<path d="M0 0 C1.99954746 -0.04254356 4.00041636 -0.04080783 6 0 C7 1 7 1 7.09765625 3.06640625 C7.08605469 3.89011719 7.07445313 4.71382812 7.0625 5.5625 C7.05347656 6.38878906 7.04445313 7.21507812 7.03515625 8.06640625 C7.01775391 9.02353516 7.01775391 9.02353516 7 10 C4.69 10 2.38 10 0 10 C0.3125 7.625 0.3125 7.625 1 5 C1.99 4.34 2.98 3.68 4 3 C2.68 3 1.36 3 0 3 C0 2.01 0 1.02 0 0 Z " fill="#63AFCE" transform="translate(57,39)"/>
<path d="M0 0 C2.64 0 5.28 0 8 0 C8.33 3.3 8.66 6.6 9 10 C8.01 10 7.02 10 6 10 C6 7.69 6 5.38 6 3 C5.01 3 4.02 3 3 3 C3 5.31 3 7.62 3 10 C2.01 10 1.02 10 0 10 C0 6.7 0 3.4 0 0 Z " fill="#68B1D0" transform="translate(89,39)"/>
<path d="M0 0 C1.32 0.33 2.64 0.66 4 1 C4 5.29 4 9.58 4 14 C2.68 14 1.36 14 0 14 C0 11.36 0 8.72 0 6 C-0.99 7.485 -0.99 7.485 -2 9 C-2.66 8.01 -3.32 7.02 -4 6 C-3.34 6 -2.68 6 -2 6 C-1.34 4.02 -0.68 2.04 0 0 Z " fill="#68B1D0" transform="translate(51,35)"/>
<path d="M0 0 C2.31 0 4.62 0 7 0 C7 2.31 7 4.62 7 7 C4.69 7 2.38 7 0 7 C0 4.69 0 2.38 0 0 Z " fill="#434343" transform="translate(140,44)"/>
<path d="M0 0 C1.98 0 3.96 0 6 0 C6 0.99 6 1.98 6 3 C4.35 2.67 2.7 2.34 1 2 C1 2.66 1 3.32 1 4 C3.475 4.99 3.475 4.99 6 6 C6 7.32 6 8.64 6 10 C3.69 10 1.38 10 -1 10 C-1 9.01 -1 8.02 -1 7 C0.32 7 1.64 7 3 7 C1.68 6.01 0.36 5.02 -1 4 C-0.67 2.68 -0.34 1.36 0 0 Z " fill="#72B6D3" transform="translate(73,39)"/>
<path d="M0 0 C2.31 0 4.62 0 7 0 C7 1.98 7 3.96 7 6 C4.69 6 2.38 6 0 6 C0 4.02 0 2.04 0 0 Z " fill="#7FCDE3" transform="translate(132,52)"/>
<path d="M0 0 C1.4540625 0.0309375 1.4540625 0.0309375 2.9375 0.0625 C2.9375 1.0525 2.9375 2.0425 2.9375 3.0625 C1.2875 2.7325 -0.3625 2.4025 -2.0625 2.0625 C-2.0625 4.0425 -2.0625 6.0225 -2.0625 8.0625 C-0.4125 8.0625 1.2375 8.0625 2.9375 8.0625 C2.9375 8.7225 2.9375 9.3825 2.9375 10.0625 C0.93795254 10.10504356 -1.06291636 10.10330783 -3.0625 10.0625 C-4.0625 9.0625 -4.0625 9.0625 -4.1953125 7.25 C-4.19273438 6.528125 -4.19015625 5.80625 -4.1875 5.0625 C-4.19007812 4.340625 -4.19265625 3.61875 -4.1953125 2.875 C-3.96314697 -0.29337667 -3.23031119 0.06592472 0 0 Z " fill="#74B7D3" transform="translate(27.0625,38.9375)"/>
<path d="M0 0 C0.5775 0.804375 1.155 1.60875 1.75 2.4375 C3.98126893 4.97866739 4.74456771 5.65120368 8 6 C7.360625 6.4125 6.72125 6.825 6.0625 7.25 C3.79009069 9.17810487 3.39803561 10.11424181 3 13 C2.34 13 1.68 13 1 13 C-0.32229189 10.35541621 -0.09677194 8.32238699 -0.0625 5.375 C-0.05347656 4.37210938 -0.04445312 3.36921875 -0.03515625 2.3359375 C-0.02355469 1.56507812 -0.01195312 0.79421875 0 0 Z " fill="#E5F1F6" transform="translate(54,36)"/>
<path d="M0 0 C1.98 0 3.96 0 6 0 C6 1.98 6 3.96 6 6 C4.02 6 2.04 6 0 6 C0 4.02 0 2.04 0 0 Z " fill="#676767" transform="translate(140,52)"/>
<path d="M0 0 C1.98 0 3.96 0 6 0 C6 1.65 6 3.3 6 5 C4.02 5 2.04 5 0 5 C0 3.35 0 1.7 0 0 Z " fill="#89CD7C" transform="translate(132,45)"/>
<path d="M0 0 C0.99 0.33 1.98 0.66 3 1 C2.16855469 1.72316406 2.16855469 1.72316406 1.3203125 2.4609375 C0.59585938 3.09257812 -0.12859375 3.72421875 -0.875 4.375 C-1.59429687 5.00148438 -2.31359375 5.62796875 -3.0546875 6.2734375 C-4.4076598 7.47426834 -5.7208345 8.7208345 -7 10 C-7.99 9.67 -8.98 9.34 -10 9 C-9.34 9 -8.68 9 -8 9 C-7.79375 8.443125 -7.5875 7.88625 -7.375 7.3125 C-5.39586833 3.98396038 -3.15974304 2.25695931 0 0 Z " fill="#7F7F7F" transform="translate(182,25)"/>
<path d="M0 0 C0 1.98 0 3.96 0 6 C-1.65 6.33 -3.3 6.66 -5 7 C-4.6875 4.625 -4.6875 4.625 -4 2 C-1 0 -1 0 0 0 Z " fill="#8FC5DC" transform="translate(62,42)"/>
<path d="M0 0 C1.32 0 2.64 0 4 0 C4 1.98 4 3.96 4 6 C2.68 6 1.36 6 0 6 C0 4.02 0 2.04 0 0 Z " fill="#EDF5F9" transform="translate(82,41)"/>
<path d="M0 0 C1.32 0 2.64 0 4 0 C4 1.98 4 3.96 4 6 C2.68 6 1.36 6 0 6 C0 4.02 0 2.04 0 0 Z " fill="#F0F7FA" transform="translate(16,41)"/>
<path d="M0 0 C0.99 0 1.98 0 3 0 C3 2.31 3 4.62 3 7 C2.01 7 1.02 7 0 7 C0 4.69 0 2.38 0 0 Z " fill="#E3F0F6" transform="translate(92,42)"/>
<path d="M0 0 C0.66 0 1.32 0 2 0 C2.33 2.97 2.66 5.94 3 9 C2.01 9 1.02 9 0 9 C0 6.03 0 3.06 0 0 Z " fill="#65AFCF" transform="translate(67,40)"/>
<path d="M0 0 C0.33 0 0.66 0 1 0 C1 2.64 1 5.28 1 8 C0.38125 7.360625 -0.2375 6.72125 -0.875 6.0625 C-2.82597612 3.96116416 -2.82597612 3.96116416 -5 3 C-5 2.34 -5 1.68 -5 1 C-2.525 1.495 -2.525 1.495 0 2 C0 1.34 0 0.68 0 0 Z " fill="#E6F2F7" transform="translate(79,40)"/>
<path d="M0 0 C0 1.98 0 3.96 0 6 C-1.32 6 -2.64 6 -4 6 C-4.33 5.01 -4.66 4.02 -5 3 C-1.125 0 -1.125 0 0 0 Z " fill="#99CADF" transform="translate(36,42)"/>
<path d="M0 0 C0.99 0 1.98 0 3 0 C3 3.63 3 7.26 3 11 C2.67 11 2.34 11 2 11 C2 8.69 2 6.38 2 4 C1.01 4.33 0.02 4.66 -1 5 C-0.67 3.35 -0.34 1.7 0 0 Z " fill="#B4D8E7" transform="translate(67,36)"/>
<path d="M0 0 C0 0.99 0 1.98 0 3 C-2.31 3 -4.62 3 -7 3 C-7.33 2.34 -7.66 1.68 -8 1 C-2.25 0 -2.25 0 0 0 Z " fill="#D1D1D1" transform="translate(220,57)"/>
</svg>
